<?xml version="1.0" encoding="UTF-8" standalone="no"?>
<!DOCTYPE svg PUBLIC "-//W3C//DTD SVG 1.1//EN" "http://www.w3.org/Graphics/SVG/1.1/DTD/svg11.dtd">
<svg width="100%" height="100%" viewBox="0 0 650 650" version="1.1" xmlns="http://www.w3.org/2000/svg" xmlns:xlink="http://www.w3.org/1999/xlink" xml:space="preserve" xmlns:serif="http://www.serif.com/" style="fill-rule:evenodd;clip-rule:evenodd;stroke-linejoin:round;stroke-miterlimit:2;">
    <g transform="matrix(1,0,0,1,-915.157,-545)">
        <g>
            <g transform="matrix(0.798506,0,0,0.798506,-343.025,-804.723)">
                <path d="M1982.68,1690.31C2282.19,1690.31 2389.69,1797.81 2389.69,2097.32C2389.69,2396.83 2282.19,2504.33 1982.68,2504.33C1683.17,2504.33 1575.67,2396.83 1575.67,2097.32C1575.67,1797.81 1683.17,1690.31 1982.68,1690.31Z" style="fill:rgb(64,98,246);"/>
            </g>
            <g transform="matrix(1,0,0,1,955.157,0)">
                <g>
                    <g transform="matrix(1.016,0,0,1.016,-222.072,153)">
                        <path d="M327.472,543.307C323.397,543.307 319.502,544.992 316.712,547.962C313.921,550.932 312.483,554.924 312.737,558.992C313.927,578.026 315.954,610.458 317.408,633.732C318.381,649.294 331.286,661.417 346.878,661.417C353.79,661.417 360.832,661.417 366.484,661.417C374.005,661.417 381.244,664.288 386.721,669.443C391.168,673.628 396.592,678.734 401.04,682.919C406.517,688.074 413.755,690.945 421.277,690.945L455.83,690.945C463.991,690.945 471.789,687.567 477.371,681.612C480.621,678.146 484.305,674.216 487.555,670.75C493.137,664.796 500.935,661.417 509.096,661.417L628.226,661.417C632.302,661.417 636.196,659.733 638.987,656.762C641.777,653.792 643.216,649.8 642.961,645.733C641.772,626.698 639.745,594.266 638.29,570.993C637.318,555.431 624.413,543.307 608.82,543.307L501.714,543.307C493.553,543.307 485.755,546.685 480.173,552.64C476.923,556.106 473.239,560.036 469.989,563.502C464.407,569.456 456.609,572.835 448.448,572.835L413.895,572.835C406.373,572.835 399.135,569.964 393.658,564.809C389.211,560.624 383.786,555.518 379.339,551.333C373.862,546.178 366.624,543.307 359.102,543.307L327.472,543.307Z" style="fill:white;"/>
                    </g>
                    <g transform="matrix(1.016,0,0,1.016,-209.983,348.376)">
                        <path d="M327.561,543.48C323.495,543.497 319.615,545.189 316.837,548.159C314.06,551.129 312.63,555.114 312.886,559.172C314.083,578.173 316.124,610.582 317.591,633.871C318.574,649.473 331.547,661.605 347.179,661.542C353.96,661.515 360.854,661.487 366.415,661.465C373.978,661.434 381.264,664.307 386.771,669.49C391.209,673.667 396.609,678.75 401.04,682.919C406.517,688.074 413.755,690.945 421.277,690.945L455.83,690.945C463.991,690.945 471.789,687.567 477.371,681.612C480.621,678.146 484.305,674.216 487.555,670.75C493.137,664.796 500.935,661.417 509.096,661.417C540.836,661.417 623.129,661.417 657.752,661.417C661.828,661.417 665.722,659.733 668.512,656.762C671.303,653.792 672.741,649.8 672.487,645.733C671.298,626.698 669.271,594.266 667.816,570.993C666.843,555.431 653.938,543.307 638.346,543.307C599.431,543.307 530.205,543.307 501.714,543.307C493.553,543.307 485.755,546.685 480.173,552.64C476.923,556.106 473.239,560.036 469.989,563.502C464.407,569.456 456.609,572.835 448.448,572.835L413.895,572.835C406.373,572.835 399.135,569.964 393.658,564.809C389.227,560.639 383.827,555.556 379.389,551.38C373.882,546.196 366.596,543.324 359.034,543.354C349.999,543.39 337.442,543.441 327.561,543.48Z" style="fill:white;"/>
                    </g>
                </g>
            </g>
        </g>
    </g>
</svg>
