<svg xmlns="http://www.w3.org/2000/svg" xmlns:xlink="http://www.w3.org/1999/xlink" fill="none" version="1.1" width="591" height="591" viewBox="0 0 591 591"><g style="mix-blend-mode:passthrough"><g style="mix-blend-mode:passthrough"><path d="M0,295.5C0,512.952,78.0484,591,295.5,591C512.952,591,591,512.952,591,295.5C591,78.0484,512.952,0,295.5,0C78.0484,0,0,78.0484,0,295.5Z" fill-rule="evenodd" fill="#4062F6" fill-opacity="1"/></g><g><path d="M148.00130000000001,167C145.24082,167,142.60224,168.14132,140.71223,170.15298C138.821356,172.16464,137.847559,174.86891,138.019433,177.6239C139.07032,194.4345,141.13053,227.3927,142.43373,248.2477C143.09253999999999,258.7879,151.8347,266.9996,162.3975,266.9996C172.3802,266.9996,183.7737,266.9996,189.647,266.9996C192.1941,266.9996,194.6464,267.972,196.5017,269.718C201.6104,274.526,212.1825,284.474,217.2911,289.282C219.1464,291.028,221.59789999999998,292,224.1458,292C233.3817,292,256.267,292,265.853,292C268.618,292,271.259,290.856,273.15,288.839C277.651,284.039,286.163,274.961,290.663,270.15999999999997C292.554,268.144,295.195,266.9996,297.96000000000004,266.9996C315.546,266.9996,381.892,266.9996,407.999,266.9996C410.759,266.9996,413.397,265.8592,415.288,263.8467C417.178,261.835,418.152,259.1316,417.981,256.37649999999996C416.93,239.566,414.869,206.607,413.565,185.7528C412.907,175.21179,404.164,167,393.602,167C363.86199999999997,167,307.679,167,291.709,167C288.94399999999996,167,286.303,168.14386,284.41200000000003,170.16058C279.91200000000003,174.96121,271.4,184.0391,266.899,188.8397C265.008,190.8556,262.367,192.0003,259.602,192.0003C250.01600000000002,192.0003,227.1307,192.0003,217.8949,192.0003C215.3469,192.0003,212.8955,191.0275,211.0401,189.2817C205.9315,184.4743,195.3594,174.52599,190.2508,169.71781C188.3955,167.971981,185.94400000000002,167,183.39600000000002,167C175.82240000000002,167,159.0722,167,148.00130000000001,167Z" fill-rule="evenodd" fill="#FFFFFF" fill-opacity="1"/></g><g><path d="M158.96514,330.157458C156.20944,330.168465,153.57996,331.31485,151.69766,333.32656C149.815328,335.33822,148.846231,338.03655,149.0198804,340.7857C150.07711,357.5674,152.15341,390.5086,153.469,411.3823C154.13483,421.9504,162.9272,430.16700000000003,173.5213,430.125C183.42090000000002,430.085,194.6792,430.039,200.5193,430.016C203.0818,430.006,205.5512,430.978,207.4174,432.734C212.5341,437.548,223.0926,447.48,228.19830000000002,452.282C230.0543,454.028,232.5068,455,235.0558,455C244.2954,455,267.19,455,276.78,455C279.546,455,282.188,453.856,284.08000000000004,451.839C288.582,447.039,297.098,437.961,301.6,433.15999999999997C303.49199999999996,431.144,306.134,429.9996,308.9,429.9996C329.054,429.9996,413.891,429.9996,443.995,429.9996C446.757,429.9996,449.396,428.8592,451.287,426.8467C453.178,424.835,454.153,422.1316,453.98,419.37649999999996C452.929,402.56600000000003,450.868,369.60699999999997,449.564,348.7528C448.905,338.21179,440.16,330,429.592,330C394.56899999999996,330,321.2,330,302.64599999999996,330C299.88,330,297.238,331.14386,295.347,333.16058C290.844,337.96121,282.329,347.0391,277.826,351.8397C275.935,353.8556,273.293,355.0004,270.527,355.0004C260.93600000000004,355.0004,238.0419,355.0004,228.8023,355.0004C226.2533,355.0004,223.80079999999998,354.0275,221.9448,352.2817C216.8392,347.4794,206.2806,337.54718,201.1639,332.73389C199.2977,330.97875,196.82920000000001,330.00594278,194.26659999999998,330.0160713C186.6899,330.0465604,169.9973,330.11343,158.96514,330.157458Z" fill-rule="evenodd" fill="#FFFFFF" fill-opacity="1"/></g></g></svg>